<svg width="75" height="79" viewBox="0 0 75 79" fill="none" xmlns="http://www.w3.org/2000/svg">
<path d="M64.9556 15.0347C63.3746 13.3682 61.4975 12.0462 59.4315 11.1442C57.3654 10.2423 55.151 9.77802 52.9146 9.77802C50.6783 9.77802 48.4638 10.2423 46.3978 11.1442C44.3318 12.0462 42.4547 13.3682 40.8737 15.0347L37.5926 18.4917L34.3116 15.0347C31.1181 11.67 26.7869 9.77976 22.2706 9.77976C17.7544 9.77976 13.4232 11.67 10.2297 15.0347C7.03625 18.3994 5.24219 22.9629 5.24219 27.7212C5.24219 32.4796 7.03625 37.0431 10.2297 40.4078L13.5108 43.8648L37.5926 69.2378L61.6745 43.8648L64.9556 40.4078C66.5373 38.742 67.792 36.7643 68.6481 34.5875C69.5041 32.4107 69.9447 30.0775 69.9447 27.7212C69.9447 25.365 69.5041 23.0318 68.6481 20.855C67.792 18.6782 66.5373 16.7004 64.9556 15.0347V15.0347Z" fill="#11448A"/>
<path d="M62.8905 42.5715L44.2788 42.3486C43.9352 42.3486 43.624 42.6348 43.4865 43.0777L42.2214 47.1505L41.2333 41.6669L40.0277 34.9195L38.2439 24.8419C38.1488 24.3036 37.8065 23.9244 37.4122 23.9196C37.0159 23.9141 36.671 24.2859 36.5694 24.8218C36.3377 26.0449 36.0883 27.358 35.8363 28.6692L34.4471 35.9251L33.0475 43.1768L31.9228 48.9557L30.9074 42.6056L30.0974 37.4812C30.011 36.9355 29.6717 36.543 29.2744 36.5297C28.8763 36.5175 28.5245 36.8845 28.4194 37.4234L28.1359 38.8792L27.4149 42.3492H12.0508L14.3892 44.7796H28.0633C28.4475 44.7796 28.7856 44.4236 28.8932 43.9053L29.1482 42.6786L29.2204 43.1355L30.9973 54.2497C31.0842 54.7941 31.424 55.1854 31.8208 55.1981C31.8272 55.1987 31.8341 55.1987 31.8406 55.1987C32.2291 55.1987 32.5711 54.8336 32.6744 54.3037L34.7155 43.8154L36.1164 36.5588L37.3733 29.9937L38.3506 35.5077L39.5566 42.2599L41.1477 51.092C41.2372 51.5896 41.5393 51.9542 41.9028 52.0034C42.2663 52.0532 42.6121 51.7755 42.7677 51.3113L43.4152 49.3773C43.4187 49.367 43.4222 49.3566 43.4252 49.3463L44.8442 44.779H60.8302L62.8905 42.5715Z" fill="white"/>
</svg>
